<svg xmlns="http://www.w3.org/2000/svg" xmlns:xlink="http://www.w3.org/1999/xlink" id="Layer_1" width="233" height="30" x="0" y="0" enable-background="new 0 0 233 30" version="1.1" viewBox="0 0 233 30" xml:space="preserve"><g><path fill="#FEFEFE" d="M85.22,146.629c-47.874,0-95.747-0.007-143.621,0.04c-1.479,0.001-1.771-0.275-1.769-1.677 c0.046-67.12,0.046-134.243,0-201.364c-0.001-1.402,0.29-1.676,1.769-1.676c95.747,0.042,191.494,0.042,287.243,0 c1.479,0,1.769,0.274,1.768,1.676c-0.046,67.121-0.046,134.244,0,201.364c0.001,1.401-0.289,1.678-1.768,1.677 C180.968,146.622,133.094,146.629,85.22,146.629z"/><path fill="#78E2EC" fill-rule="evenodd" d="M124.809,14.603c0-1.089-0.004-2.182,0.002-3.272 c0.007-0.757-0.028-1.661,0.832-1.942c0.923-0.3,2.095-0.542,2.789,0.366c0.506,0.657,0.905,0.465,1.423,0.239 c2.79-1.222,5.573-1.342,8.141,0.388c0.789,0.53,1.264,0.221,1.675-0.111c1.949-1.579,4.252-1.216,6.385-0.881 c1.66,0.262,2.95,1.354,2.929,3.262s-0.007,3.817,0.027,5.727c0.018,1.074-0.209,1.86-1.599,1.937 c-1.449,0.077-2.2-0.548-2.264-1.856c-0.077-1.494-0.096-2.999-0.022-4.495c0.093-1.835-0.866-2.614-2.684-2.647 c-1.893-0.035-3.363,1.048-3.435,2.614c-0.068,1.498-0.024,2.999-0.022,4.497c0,1.261-0.655,1.87-1.989,1.882 c-1.343,0.016-1.98-0.523-1.919-1.849c0.065-1.431-0.028-2.864,0.023-4.294c0.059-1.558-0.375-2.675-2.255-2.848 c-1.993-0.184-3.518,0.677-3.952,2.351c-0.402,1.544-0.166,3.121-0.169,4.684c-0.003,1.215-0.338,1.945-1.799,1.967 c-1.387,0.019-2.004-0.663-2.074-1.834c-0.079-1.292-0.021-2.589-0.021-3.884C124.825,14.603,124.817,14.603,124.809,14.603z" clip-rule="evenodd"/><path fill="#484848" fill-rule="evenodd" d="M18.572,12.138c0-1.976-0.009-3.954,0.003-5.93 c0.006-0.98,0.312-1.816,1.548-1.801c4.014,0.041,8.057-0.448,12.034,0.382c2.769,0.58,3.926,1.819,4.043,4.031 c0.13,2.438-0.831,3.736-3.347,4.531c-2.722,0.859-5.545,0.702-8.335,0.625c-1.536-0.042-2.068,0.423-1.9,1.845 c0.104,0.875,0.013,1.77,0.009,2.655c-0.009,1.274-0.702,1.824-2.028,1.83c-1.339,0.006-2.019-0.566-2.023-1.831 C18.568,16.362,18.573,14.25,18.572,12.138z" clip-rule="evenodd"/><path fill="#474747" fill-rule="evenodd" d="M107.083,15.882c0,0.75,0.011,1.5-0.003,2.25 c-0.04,2.094-1.437,2.957-3.125,1.71c-0.875-0.648-1.348-0.487-2.113-0.163c-2.468,1.053-4.819,0.835-7.166-0.479 c-1.352-0.759-1.631-1.782-1.45-3.083c0.186-1.331,1.373-1.679,2.433-1.99c1.932-0.572,3.969-0.538,5.973-0.682 c0.592-0.042,1.595,0.436,1.614-0.733c0.015-0.95-0.686-1.253-1.555-1.363c-1.817-0.235-3.578,0.068-5.326,0.493 c-0.625,0.152-1.245,0.387-1.894,0.141c-0.379-0.146-0.85-0.205-0.872-0.75c-0.019-0.457,0.203-0.681,0.61-0.945 c2.326-1.504,9.036-1.542,11.444-0.085c0.977,0.592,1.265,1.465,1.353,2.409c0.099,1.082,0.022,2.178,0.022,3.271 C107.045,15.882,107.063,15.882,107.083,15.882z" clip-rule="evenodd"/><path fill="#78E2EC" fill-rule="evenodd" d="M175.353,14.656c0-1.159-0.02-2.318,0.004-3.477 c0.015-0.755,0.041-1.621,0.98-1.845c0.879-0.208,1.985-0.455,2.596,0.396c0.661,0.92,1.129,0.602,1.925,0.219 c3.251-1.572,7.21-0.888,8.997,1.292c0.785,0.956,0.501,1.935,0.559,2.909c0.079,1.358-0.054,2.729,0.038,4.088 c0.098,1.417-0.634,2.08-1.99,2.041c-1.311-0.04-2.374-0.54-2.357-2.062c0.012-1.294-0.014-2.59,0.004-3.885 c0.021-1.501,0.032-2.92-2.188-3.028c-2.544-0.125-4.291,0.781-4.559,2.713c-0.193,1.409-0.126,2.856-0.107,4.285 c0.019,1.169-0.235,1.982-1.737,2.02c-1.513,0.035-2.086-0.731-2.145-1.984c-0.057-1.225-0.012-2.453-0.012-3.681 C175.356,14.656,175.354,14.656,175.353,14.656z" clip-rule="evenodd"/><path fill="#484848" fill-rule="evenodd" d="M72.457,14.608c-0.001-1.156-0.008-2.313,0.003-3.47 c0.005-0.74-0.142-1.606,0.865-1.871c0.899-0.236,2.02-0.375,2.584,0.391c0.552,0.751,1.027,0.738,1.637,0.363 c1.972-1.219,4.135-1.009,6.258-0.712c2.121,0.296,3.613,2.215,3.699,4.538c0.052,1.428-0.004,2.86,0.014,4.289 c0.022,1.434-0.849,2.102-2.216,2.147c-1.411,0.047-2.257-0.535-2.147-2.071c0.1-1.425,0-2.859,0.021-4.288 c0.028-1.932-1.115-2.62-2.977-2.621c-2.343-0.003-3.724,0.902-3.816,2.652c-0.079,1.494-0.075,2.997-0.011,4.491 c0.065,1.529-0.938,1.806-2.198,1.849c-1.321,0.044-1.75-0.662-1.722-1.808C72.482,17.194,72.457,15.9,72.457,14.608z" clip-rule="evenodd"/><path fill="#78E2EC" fill-rule="evenodd" d="M169.256,18.689c-3.79,2.19-7.747,2.17-11.654,0.482 c-2.299-0.989-2.859-3.032-2.617-5.316c0.272-2.586,2.234-3.774,4.462-4.359c2.268-0.592,4.685-0.591,6.972,0.241 c1.542,0.561,2.775,1.417,2.883,3.169c0.386,0.576,0.396,1.145-0.039,1.705c-2.58,0.865-5.252,0.126-7.857,0.407 c-0.832,0.092-2.159-0.615-2.395,0.564c-0.255,1.256,1.045,1.845,2.11,2.231c1.607,0.581,3.216,0.259,4.838-0.16 c1.041-0.269,2.129-1.023,3.271-0.198C169.59,17.861,169.582,18.271,169.256,18.689z" clip-rule="evenodd"/><path fill="#484848" fill-rule="evenodd" d="M52.09,13.743c0.248-2.14,1.646-3.39,3.677-3.987 c3.396-1.003,6.684-1.222,9.602,1.335c0.641,0.564,0.877,1.161,1.117,1.846c0.403,0.561,0.405,1.115-0.033,1.661 c-2.724,0.876-5.537,0.148-8.292,0.421c-0.707,0.07-1.776-0.503-2.069,0.418c-0.341,1.075,0.577,1.707,1.524,2.159 c1.648,0.785,3.351,0.55,5.043,0.199c0.625-0.129,1.222-0.372,1.832-0.562c0.721-0.225,1.5-0.375,1.841,0.457 c0.371,0.9-0.229,1.328-1.091,1.624c-4.029,1.381-7.905,1.652-11.625-0.921c-1.013-0.697-1.195-1.604-1.503-2.553 C51.658,15.146,51.667,14.447,52.09,13.743z" clip-rule="evenodd"/><path fill="#78E2EC" fill-rule="evenodd" d="M210.635,13.323c0.049-1.76,1.433-2.611,2.765-3.368 c2.461-1.401,7.645-0.855,10.019,0.732c1.023,0.684,1.305,1.574,1.496,2.561c0.229,1.173-0.277,1.787-1.631,1.761 c-2.37-0.043-4.742-0.037-7.112,0.01c-0.568,0.011-1.496-0.394-1.651,0.393c-0.155,0.777,0.183,1.62,1.093,2.034 c1.535,0.696,3.113,0.979,4.786,0.475c0.817-0.246,1.652-0.438,2.471-0.684c0.82-0.245,1.644-0.354,1.946,0.608 c0.249,0.796-0.354,1.323-1.069,1.543c-4.019,1.246-7.954,1.615-11.654-0.974c-0.836-0.585-1.202-1.296-1.434-2.162 C210.104,15.28,210.127,14.304,210.635,13.323z" clip-rule="evenodd"/><path fill="#78E2EC" fill-rule="evenodd" d="M203.834,20.31c-4.553-0.307-6.503-1.329-6.088-5.883 c0.045-0.473-0.044-0.959,0.015-1.431c0.152-1.215-0.312-1.772-1.67-1.672c-0.786,0.057-1.737,0.001-1.694-1.071 c0.038-0.91,0.901-1.024,1.617-0.953c1.499,0.151,1.861-0.519,1.757-1.786c-0.119-1.477,0.989-1.906,2.229-1.863 c1.213,0.042,2.303,0.476,2.075,1.977c-0.218,1.435,0.554,1.792,1.876,1.65c0.424-0.045,0.865-0.013,1.293,0.034 c0.645,0.07,1.092,0.391,1.071,1.051c-0.015,0.552-0.404,0.822-0.956,0.943c-1.029,0.225-2.582-0.485-3.016,0.437 c-0.514,1.091-0.131,2.538-0.282,3.813c-0.225,1.901,0.828,2.583,2.6,2.693c0.793,0.051,1.77,0,1.667,1.092 c-0.096,1.004-1.055,0.938-1.848,0.967C204.265,20.316,204.049,20.31,203.834,20.31z" clip-rule="evenodd"/><path fill="#474747" fill-rule="evenodd" d="M46.119,12.28c0,2.043-0.065,4.088,0.022,6.129 c0.065,1.533-0.904,1.827-2.161,1.884c-1.289,0.055-1.774-0.598-1.767-1.77c0.024-4.155,0.023-8.308,0.002-12.462 c-0.007-1.231,0.629-1.757,1.86-1.675c1.146,0.077,2.112,0.321,2.062,1.766C46.066,8.192,46.119,10.237,46.119,12.28z" clip-rule="evenodd"/><path fill="#C3F2F6" fill-rule="evenodd" d="M210.635,13.323c0.01,0.979,0.016,1.953,0.023,2.93 C209.326,15.286,209.34,14.308,210.635,13.323z" clip-rule="evenodd"/><path fill="#CCC" fill-rule="evenodd" d="M52.09,13.743c0.007,0.697,0.016,1.398,0.023,2.097 C50.886,15.152,50.791,14.456,52.09,13.743z" clip-rule="evenodd"/><path fill="#D4D4D4" fill-rule="evenodd" d="M66.454,14.598c0.011-0.554,0.022-1.107,0.033-1.661 C67.656,13.513,67.68,14.066,66.454,14.598z" clip-rule="evenodd"/><path fill="#BDF1F6" fill-rule="evenodd" d="M169.262,14.613c0.012-0.569,0.027-1.138,0.039-1.705 C170.457,13.5,170.471,14.07,169.262,14.613z" clip-rule="evenodd"/><path fill="#E1F8FA" fill-rule="evenodd" d="M169.256,18.689c-0.01-0.411-0.018-0.822-0.027-1.232 c0.437,0.058,0.854,0.154,0.793,0.7C169.973,18.579,169.603,18.628,169.256,18.689z" clip-rule="evenodd"/><path fill="#FEFEFE" fill-rule="evenodd" d="M-30.57,26.436c-6.139-1.728-11.441-4.811-14.742-10.09 c-2.471-3.955-3.399-8.236-1.346-12.928c4.104-9.378,12.318-12.749,21.98-14.204c1.547-0.233,3.115-0.577,4.759-0.366 c7.321,0.057,14.215,1.796,20.027,6.139C5.52-0.97,8.932,4.236,7.477,11.15c-1.185,5.632-4.904,9.598-10.049,12.4" clip-rule="evenodd"/><path fill="#FEFEFE" fill-rule="evenodd" d="M26.633,6.614c1.141,0.078,2.315,0.018,3.41,0.274 c1.157,0.271,2.248,0.789,2.325,2.228c0.074,1.366-0.925,1.964-1.969,2.271c-2.289,0.669-4.684,0.259-7.033,0.321 c-0.553,0.016-0.723-0.319-0.719-0.783c0.002-0.134,0.001-0.272-0.008-0.406C22.349,6.661,22.349,6.661,26.633,6.614z" clip-rule="evenodd"/><path fill="#FCFCFC" fill-rule="evenodd" d="M101.437,15.042c0.477,0.234,1.584-0.594,1.81,0.496 c0.2,0.961-0.203,1.868-1.366,2.233c-0.264,0.083-0.48,0.324-0.745,0.381c-1.291,0.274-2.513,0.253-3.64-0.578 c-0.589-0.437-0.619-1.06-0.345-1.419c0.719-0.938,1.896-1.057,3.044-1.11C100.551,15.028,100.909,15.042,101.437,15.042z" clip-rule="evenodd"/><path fill="#FDFEFE" fill-rule="evenodd" d="M162.328,13.401c-0.642,0-1.289,0.045-1.925-0.015 c-0.496-0.046-1.293,0.314-1.369-0.503c-0.052-0.547,0.4-0.958,0.979-1.206c1.633-0.709,3.237-0.967,4.887-0.021 c0.536,0.309,0.969,0.651,0.818,1.262c-0.152,0.625-0.781,0.457-1.25,0.475C163.757,13.42,163.041,13.401,162.328,13.401z" clip-rule="evenodd"/><path fill="#FCFCFC" fill-rule="evenodd" d="M59.357,13.437c-0.643,0-1.291,0.052-1.925-0.017 c-0.482-0.051-1.29,0.356-1.337-0.517c-0.029-0.539,0.357-0.916,0.955-1.192c1.651-0.763,3.234-0.834,4.917-0.084 c0.69,0.307,1.093,0.734,0.961,1.365c-0.159,0.765-0.929,0.387-1.431,0.43C60.789,13.482,60.071,13.437,59.357,13.437z" clip-rule="evenodd"/><path fill="#FDFEFE" fill-rule="evenodd" d="M214.327,13.401c1.148-2.266,4.749-3.081,6.363-1.709 c0.341,0.291,0.66,0.823,0.637,1.227c-0.035,0.67-0.748,0.464-1.202,0.471C218.269,13.415,216.412,13.401,214.327,13.401z" clip-rule="evenodd"/><path fill="#6FE0EA" fill-rule="evenodd" d="M124.794,2.124c2.656-0.082,5.303-0.223,7.856-0.972 c0.629-0.185,1.02-0.183,0.806,0.652c-1.105,4.333-4.098,7.036-9.403,7.414c-1.563,0.111-3.116,0.364-4.668,0.581 c-0.344,0.049-0.69,0.218-0.946-0.086c-0.284-0.337-0.092-0.689,0.136-0.975c0.629-0.787,1.456-1.393,2.344-1.938 c0.291-0.228,0.643-0.377,0.944-0.591c0.23-0.012,4.66,0.229,4.865,0.405c-0.188-0.202-4.623-0.412-4.847-0.429 c-0.348,0.301-0.821,0.272-1.241,0.379c-2.632,0.836-3.816,2.548-3.811,4.982c0.157,0.487,0.095,0.786-0.594,0.542 c-0.482-2.802,0.339-5.314,2.124-7.615c0.119-0.556,0.729-0.714,1.094-1.073c0.96-0.61,2.031-0.973,3.194-1.136 C123.359,2.176,124.056,1.898,124.794,2.124z" clip-rule="evenodd"/><path fill="#6FE0EA" fill-rule="evenodd" d="M110.291,9.438c-1.669-0.437-2.967-1.498-3.924-2.945 c-0.903-1.361-1.358-2.98-1.838-4.695c1.47-0.182,2.824,0.645,4.292,0.703c3.137,0.123,6.252,0.561,8.962,2.5 c0.494,0.356,1.686,0.641,0.266,1.433c-0.941,0.326-1.885,0.634-2.891,0.603c-0.497,0.051-0.859-0.314-1.286-0.472 c-0.413-0.181-9.008-1.771-9.343-1.981c0.189,0.323,8.769,1.716,9.073,1.927c0.818,0.372,0.66,0.797,0.034,1.192 c-0.51,0.324-1.059,0.582-1.45,1.085C111.587,9.113,111.085,9.759,110.291,9.438z" clip-rule="evenodd"/><path fill="#E3F8FB" fill-rule="evenodd" d="M-21.251,4.369c1.477,0.227,2.851-0.651,4.333-0.36 c-0.005,0.136-0.01,0.271-0.012,0.407c-1.019,0.234-2.037,0.469-3.055,0.704C-20.286,4.684-21.356,5.416-21.251,4.369z" clip-rule="evenodd"/><path fill="#ECFAFC" fill-rule="evenodd" d="M-27.711,7.727c1.049,0.209,1.511-0.953,2.471-0.95 c0.202-0.167,0.386-0.152,0.555,0.044c-0.31,0.688-1.066,0.853-1.628,1.243C-26.798,8.021-27.327,8.145-27.711,7.727z" clip-rule="evenodd"/><path fill="#9CEAF0" fill-rule="evenodd" d="M-29.41,19.886c0.617,0.023,0.781-0.374,0.865-0.843 c0.396,0.52,0.699,1.152,0.023,1.547C-29.019,20.883-29.442,20.506-29.41,19.886z" clip-rule="evenodd"/><path fill="#D9F7F9" fill-rule="evenodd" d="M-21.211,11.034c-0.333,0.452-0.771,0.701-1.371,0.642 c-0.136-0.123-0.271-0.245-0.407-0.366c0.429-0.57,1.182-0.453,1.745-0.74c0.14,0.096,0.191,0.195,0.154,0.301 C-21.126,10.979-21.167,11.034-21.211,11.034z" clip-rule="evenodd"/><path fill="#ECFBFC" fill-rule="evenodd" d="M-24.685,6.82c-0.185-0.015-0.369-0.03-0.554-0.044 c0.437-0.771,1.227-1.099,2-1.462c0.885-0.417,0.649-0.752-0.123-1.009c-0.131-0.382-0.008-0.541,0.42-0.433 c0.6,0.055,1.198,0.112,1.69,0.496c0.422,0.251,0.844,0.501,1.266,0.751C-21.688,5.35-23.174,6.117-24.685,6.82z" clip-rule="evenodd"/><path fill="#E4F9FB" fill-rule="evenodd" d="M-21.211,11.034c-0.011-0.155-0.022-0.31-0.033-0.464 c0.509-0.019,1.007-0.404,1.562-0.066C-20.053,11.133-20.733,10.815-21.211,11.034z" clip-rule="evenodd"/><path fill="#B8F0F5" fill-rule="evenodd" d="M-22.941,3.873c-0.14,0.144-0.28,0.288-0.42,0.433 c-0.528,0.043-0.979-0.123-1.566-0.646C-24.12,3.518-23.524,3.379-22.941,3.873z" clip-rule="evenodd"/></g></svg>